<?xml version="1.0" encoding="UTF-8"?>
<svg width="20px" height="20px" viewBox="0 0 20 20" version="1.1" xmlns="http://www.w3.org/2000/svg" xmlns:xlink="http://www.w3.org/1999/xlink">
    <title>0296_key</title>
    <g id="工程文档" stroke="none" stroke-width="1" fill="none" fill-rule="evenodd">
        <g id="新华CPAD系统-图适配1440x900" transform="translate(-1088.000000, -430.000000)" fill-rule="nonzero">
            <g id="编组-6" transform="translate(1072.000000, 291.000000)">
                <g id="编组-4" transform="translate(0.000000, 129.000000)">
                    <g id="0296_key" transform="translate(16.000000, 10.000000)">
                        <rect id="矩形" fill="#000000" opacity="0" x="0" y="0" width="20" height="20"></rect>
                        <path d="M12.9166667,2.08333334 C10.1666667,2.08333334 7.91666666,4.33333334 7.91666666,7.08333334 C7.91666666,8.25 8.29166666,9.29166668 8.95833334,10.1666667 L7.08333334,12.0416667 L5.45833334,10.4166667 L4.58333334,11.2916667 L6.20833334,12.9166667 L5.41666666,13.7083333 L3.375,11.6666667 L2.5,12.5416667 L4.54166666,14.5833333 L2.91666666,16.2083333 L3.79166666,17.0833333 L9.875,11 C10.7083333,11.6666667 11.7916667,12.0416667 12.9583333,12.0416667 C15.7083333,12.0416667 17.9583333,9.79166666 17.9583333,7.04166666 C17.9166667,4.33333334 15.6666667,2.08333334 12.9166667,2.08333334 Z M12.9166667,10.8333333 C10.8333333,10.8333333 9.16666666,9.16666668 9.16666666,7.08333334 C9.16666666,5 10.8333333,3.33333334 12.9166667,3.33333334 C15,3.33333334 16.6666667,5 16.6666667,7.08333334 C16.6666667,9.16666668 15,10.8333333 12.9166667,10.8333333 Z" id="形状" fill="#646769"></path>
                    </g>
                </g>
            </g>
        </g>
    </g>
</svg>