<?xml version="1.0" encoding="UTF-8"?>
<svg width="20px" height="20px" viewBox="0 0 20 20" version="1.1" xmlns="http://www.w3.org/2000/svg" xmlns:xlink="http://www.w3.org/1999/xlink">
    <title>0625_folder_index</title>
    <g id="扩展设计" stroke="none" stroke-width="1" fill="none" fill-rule="evenodd" opacity="0.600000024">
        <g id="门户设计-左侧导航节点图标" transform="translate(-8.000000, -178.000000)" fill-rule="nonzero">
            <g id="编组-5" transform="translate(0.000000, 88.000000)">
                <g id="编组备份-3" transform="translate(0.000000, 80.000000)">
                    <g id="0625_folder_index" transform="translate(8.000000, 10.000000)">
                        <rect id="矩形" fill="#000000" opacity="0" x="0" y="0" width="20" height="20"></rect>
                        <path d="M10,5 L7.91666666,2.91666666 L1.66666666,2.91666666 L1.66666666,17.0833333 L18.3333333,17.0833333 L18.3333333,5 L10,5 Z M2.91666666,4.16666666 L7.41666666,4.16666666 L8.25,5 L2.91666666,5 L2.91666666,4.16666666 Z M17.0833333,15.8333333 L2.91666666,15.8333333 L2.91666666,6.25 L17.0833333,6.25 L17.0833333,15.8333333 L17.0833333,15.8333333 Z M11.2916667,13 L14.5833333,9.70833334 L14.5833333,7.95833334 L11.2916667,11.25 L8.70833334,8.66666666 L5.41666666,11.9583333 L5.41666666,13.7083333 L8.70833334,10.4166667 L11.2916667,13 Z" id="形状" fill="#FFFFFF"></path>
                    </g>
                </g>
            </g>
        </g>
    </g>
</svg>