<?xml version="1.0" encoding="UTF-8"?>
<svg width="20px" height="20px" viewBox="0 0 20 20" version="1.1" xmlns="http://www.w3.org/2000/svg" xmlns:xlink="http://www.w3.org/1999/xlink">
    <title>0540_findfile</title>
    <g id="扩展设计" stroke="none" stroke-width="1" fill="none" fill-rule="evenodd" opacity="0.600000024">
        <g id="门户设计-左侧导航节点图标" transform="translate(-8.000000, -218.000000)" fill-rule="nonzero">
            <g id="编组-5" transform="translate(0.000000, 88.000000)">
                <g id="编组备份-4" transform="translate(0.000000, 120.000000)">
                    <g id="0540_findfile" transform="translate(8.000000, 10.000000)">
                        <rect id="矩形" fill="#000000" opacity="0" x="0" y="0" width="20" height="20"></rect>
                        <path d="M17.3333333,14.375 C17.7083333,13.8333333 17.9166667,13.2083333 17.9166667,12.5 C17.9166667,10.6666667 16.4166667,9.16666666 14.5833333,9.16666666 C12.75,9.16666666 11.25,10.6666667 11.25,12.5 C11.25,14.3333333 12.75,15.8333333 14.5833333,15.8333333 C15.2916667,15.8333333 15.9166667,15.625 16.4583333,15.25 L18.1666667,16.9583333 L19.0416667,16.0833333 L17.3333333,14.375 Z M12.5,12.5 C12.5,11.3333333 13.4166667,10.4166667 14.5833333,10.4166667 C15.75,10.4166667 16.6666667,11.3333333 16.6666667,12.5 C16.6666667,13.6666667 15.75,14.5833333 14.5833333,14.5833333 C13.4166667,14.5833333 12.5,13.6666667 12.5,12.5 Z M5.83333334,9.375 L10,9.375 L10,10.625 L5.83333334,10.625 L5.83333334,9.375 Z M5.83333334,11.875 L10,11.875 L10,13.125 L5.83333334,13.125 L5.83333334,11.875 Z M5.83333334,6.875 L14.1666667,6.875 L14.1666667,8.125 L5.83333334,8.125 L5.83333334,6.875 Z M4.58333334,2.91666666 L15.4166667,2.91666666 L15.4166667,7.95833334 L16.6666667,7.95833334 L16.6666667,1.66666666 L3.33333334,1.66666666 L3.33333334,18.3333333 L16.6666667,18.3333333 L16.6666667,17.0416667 L4.58333334,17.0833333 L4.58333334,2.91666666 Z" id="形状" fill="#FFFFFF"></path>
                    </g>
                </g>
            </g>
        </g>
    </g>
</svg>