<?xml version="1.0" encoding="UTF-8"?>
<svg width="20px" height="20px" viewBox="0 0 20 20" version="1.1" xmlns="http://www.w3.org/2000/svg" xmlns:xlink="http://www.w3.org/1999/xlink">
    <title>0633_chart_show2</title>
    <g id="扩展设计" stroke="none" stroke-width="1" fill="none" fill-rule="evenodd" opacity="0.600000024">
        <g id="门户设计-左侧导航节点图标" transform="translate(-8.000000, -258.000000)" fill-rule="nonzero">
            <g id="编组-5" transform="translate(0.000000, 88.000000)">
                <g id="编组备份-5" transform="translate(0.000000, 160.000000)">
                    <g id="0633_chart_show2" transform="translate(8.000000, 10.000000)">
                        <rect id="矩形" fill="#000000" opacity="0" x="0" y="0" width="20" height="20"></rect>
                        <path d="M8.91666666,8.04166666 L5.625,11.3333333 L5.625,13.0833333 L8.91666666,9.79166666 L11.0833333,11.9583333 L14.375,8.66666666 L14.375,6.91666666 L11.0833333,10.2083333 L8.91666666,8.04166666 Z M14.5833333,2.5 L14.5833333,1.66666666 L13.3333333,1.66666666 L13.3333333,2.5 L6.66666666,2.5 L6.66666666,1.66666666 L5.41666666,1.66666666 L5.41666666,2.5 L2.5,2.5 L2.5,17.5 L17.5,17.5 L17.5,2.5 L14.5833333,2.5 Z M16.25,16.25 L3.75,16.25 L3.75,3.75 L5.41666666,3.75 L5.41666666,4.58333334 L6.66666666,4.58333334 L6.66666666,3.75 L13.3333333,3.75 L13.3333333,4.58333334 L14.5833333,4.58333334 L14.5833333,3.75 L16.25,3.75 L16.25,16.25 Z" id="形状" fill="#FFFFFF"></path>
                    </g>
                </g>
            </g>
        </g>
    </g>
</svg>