<?xml version="1.0" encoding="UTF-8"?>
<svg width="20px" height="20px" viewBox="0 0 20 20" version="1.1" xmlns="http://www.w3.org/2000/svg" xmlns:xlink="http://www.w3.org/1999/xlink">
    <title>0265_chart_line_desktop</title>
    <g id="扩展设计" stroke="none" stroke-width="1" fill="none" fill-rule="evenodd" opacity="0.600000024">
        <g id="门户设计-左侧导航节点图标" transform="translate(-8.000000, -338.000000)" fill-rule="nonzero">
            <g id="编组-5" transform="translate(0.000000, 88.000000)">
                <g id="编组备份-7" transform="translate(0.000000, 240.000000)">
                    <g id="0265_chart_line_desktop" transform="translate(8.000000, 10.000000)">
                        <rect id="矩形" fill="#000000" opacity="0" x="0" y="0" width="20" height="20"></rect>
                        <path d="M17.9166667,14.1666667 L17.9166667,2.5 L2.08333334,2.5 L2.08333334,14.1666667 L9.375,14.1666667 L9.375,16.25 L5.83333334,16.25 L5.83333334,17.5 L14.1666667,17.5 L14.1666667,16.25 L10.625,16.25 L10.625,14.1666667 L17.9166667,14.1666667 Z M3.33333334,12.9166667 L3.33333334,3.75 L16.6666667,3.75 L16.6666667,12.9166667 L3.33333334,12.9166667 Z M11.2916667,8.70833334 L8.70833334,6.125 L4.95833334,9.875 L5.83333334,10.75 L8.70833334,7.875 L11.2916667,10.4583333 L15.0416667,6.70833334 L14.1666667,5.83333334 L11.2916667,8.70833334 Z" id="形状" fill="#FFFFFF"></path>
                    </g>
                </g>
            </g>
        </g>
    </g>
</svg>