<?xml version="1.0" encoding="UTF-8"?>
<svg width="20px" height="20px" viewBox="0 0 20 20" version="1.1" xmlns="http://www.w3.org/2000/svg" xmlns:xlink="http://www.w3.org/1999/xlink">
    <title>0198_regulator_more</title>
    <g id="扩展设计" stroke="none" stroke-width="1" fill="none" fill-rule="evenodd" opacity="0.600000024">
        <g id="门户设计-左侧导航节点图标" transform="translate(-8.000000, -378.000000)" fill-rule="nonzero">
            <g id="编组-5" transform="translate(0.000000, 88.000000)">
                <g id="编组备份-8" transform="translate(0.000000, 280.000000)">
                    <g id="0198_regulator_more" transform="translate(8.000000, 10.000000)">
                        <rect id="矩形" fill="#000000" opacity="0" x="0" y="0" width="20" height="20"></rect>
                        <path d="M2.5,15 L2.5,16.25 L10.4166667,16.25 L10.4166667,17.9166667 L15,17.9166667 L15,16.25 L17.5,16.25 L17.5,15 L15,15 L15,13.3333333 L10.4166667,13.3333333 L10.4166667,15 L2.5,15 Z M13.75,14.5833333 L13.75,16.6666667 L11.6666667,16.6666667 L11.6666667,14.5833333 L13.75,14.5833333 Z M2.5,9.375 L2.5,10.625 L5,10.625 L5,12.2916667 L9.58333334,12.2916667 L9.58333334,10.625 L17.5,10.625 L17.5,9.375 L9.58333334,9.375 L9.58333334,7.70833334 L5,7.70833334 L5,9.375 L2.5,9.375 Z M8.33333334,8.95833334 L8.33333334,11.0416667 L6.25,11.0416667 L6.25,8.95833334 L8.33333334,8.95833334 Z M10.4166667,2.08333334 L10.4166667,3.75 L2.5,3.75 L2.5,5 L10.4166667,5 L10.4166667,6.66666666 L15,6.66666666 L15,5 L17.5,5 L17.5,3.75 L15,3.75 L15,2.08333334 L10.4166667,2.08333334 Z M13.75,3.33333334 L13.75,5.41666666 L11.6666667,5.41666666 L11.6666667,3.33333334 L13.75,3.33333334 L13.75,3.33333334 Z" id="形状" fill="#FFFFFF"></path>
                    </g>
                </g>
            </g>
        </g>
    </g>
</svg>