<?xml version="1.0" encoding="UTF-8"?>
<svg width="20px" height="20px" viewBox="0 0 20 20" version="1.1" xmlns="http://www.w3.org/2000/svg" xmlns:xlink="http://www.w3.org/1999/xlink">
    <title>0014_setting</title>
    <g id="扩展设计" stroke="none" stroke-width="1" fill="none" fill-rule="evenodd" opacity="0.600000024">
        <g id="门户设计-左侧导航节点图标" transform="translate(-8.000000, -418.000000)" fill-rule="nonzero">
            <g id="编组-5" transform="translate(0.000000, 88.000000)">
                <g id="编组备份-9" transform="translate(0.000000, 320.000000)">
                    <g id="0014_setting" transform="translate(8.000000, 10.000000)">
                        <rect id="矩形" fill="#000000" opacity="0" x="0" y="0" width="20" height="20"></rect>
                        <path d="M16.6666667,10 C16.6666667,9.04166666 17.25,8.20833334 18.0416667,7.83333334 C17.6666667,6.375 16.875,5.04166668 15.8333333,4.04166666 C15.4166667,4.33333332 14.9583333,4.45833332 14.4583333,4.45833334 C14.0416667,4.45833334 13.6666667,4.375 13.2916667,4.125 C12.5,3.66666666 12.0416667,2.79166666 12.125,1.91666666 C11.4583333,1.75 10.75,1.66666666 10,1.66666666 C9.25,1.66666666 8.5,1.75 7.79166666,1.95833334 C7.83333332,2.83333334 7.41666666,3.66666666 6.625,4.16666666 C6.25,4.375 5.83333334,4.5 5.45833334,4.5 C5,4.5 4.54166668,4.375 4.16666666,4.125 C3.125,5.16666666 2.375,6.45833334 2,7.875 C2.75,8.20833334 3.33333334,9.04166666 3.33333334,10 C3.33333334,10.9583333 2.75,11.7916667 1.95833334,12.1666667 C2.33333334,13.5833333 3.08333334,14.875 4.08333334,15.875 C4.5,15.5833333 4.95833334,15.4583333 5.45833334,15.4583333 C5.875,15.4583333 6.25,15.5416667 6.625,15.7916667 C7.45833334,16.25 7.875,17.1666667 7.79166666,18.0833333 C8.5,18.2916667 9.25,18.375 10,18.375 C10.75,18.375 11.4583333,18.2916667 12.125,18.0833333 C12.0416667,17.1666667 12.4583333,16.25 13.2916667,15.7916667 C13.6666667,15.5833333 14.0833333,15.4583333 14.4583333,15.4583333 C14.9583333,15.4583333 15.4583333,15.625 15.875,15.9166667 C16.9166667,14.875 17.6666667,13.5833333 18.0416667,12.1666667 C17.25,11.7916667 16.6666667,10.9583333 16.6666667,10 Z M16.5833333,12.6666667 C16.3333333,13.2916667 16,13.875 15.5833333,14.375 C15.2083333,14.25 14.875,14.2083333 14.5,14.2083333 C13.875,14.2083333 13.25,14.375 12.7083333,14.7083333 C11.8333333,15.2083333 11.2083333,16.0833333 11,17.0416667 C10.625,17.0416667 10.3333333,17.0833333 10,17.0833333 C9.66666666,17.0833333 9.29166666,17.0416667 8.95833334,17 C8.75,16.0416667 8.125,15.1666667 7.25,14.6666667 C6.70833334,14.3333333 6.08333334,14.1666667 5.45833334,14.1666667 C5.08333334,14.1666667 4.75,14.2083333 4.41666666,14.3333333 C4,13.8333333 3.66666666,13.25 3.41666666,12.625 C4.16666666,11.9583333 4.58333334,11 4.58333334,10 C4.58333334,9 4.16666668,8.04166666 3.41666666,7.33333334 C3.66666666,6.70833334 4,6.125 4.45833334,5.58333334 C4.79166668,5.66666668 5.125,5.70833334 5.45833334,5.70833334 C6.08333334,5.70833334 6.70833334,5.54166668 7.25,5.20833334 C8.125,4.70833334 8.70833334,3.875 8.95833334,2.95833334 C9.29166668,2.95833334 9.66666668,2.91666666 10,2.91666666 C10.3333333,2.91666666 10.6666667,2.95833332 10.9583333,3 C11.2083333,3.91666666 11.7916667,4.75 12.6666667,5.25 C13.2083333,5.58333334 13.8333333,5.75 14.4583333,5.75 C14.8333333,5.75 15.1666667,5.70833334 15.5,5.58333334 C15.9166667,6.125 16.2916667,6.70833334 16.5416667,7.375 C15.8333333,8.04166666 15.4166667,9 15.4166667,10 C15.4166667,11 15.8333333,11.9583333 16.5833333,12.6666667 Z M10,6.25 C7.91666666,6.25 6.25,7.91666666 6.25,10 C6.25,12.0833333 7.91666666,13.75 10,13.75 C12.0833333,13.75 13.75,12.0833333 13.75,10 C13.75,7.91666666 12.0833333,6.25 10,6.25 Z M10,12.5 C8.625,12.5 7.5,11.375 7.5,10 C7.5,8.625 8.625,7.5 10,7.5 C11.375,7.5 12.5,8.625 12.5,10 C12.5,11.375 11.375,12.5 10,12.5 Z" id="形状" fill="#FFFFFF"></path>
                    </g>
                </g>
            </g>
        </g>
    </g>
</svg>