<?xml version="1.0" encoding="UTF-8"?>
<svg width="22px" height="22px" viewBox="0 0 22 22" version="1.1" xmlns="http://www.w3.org/2000/svg" xmlns:xlink="http://www.w3.org/1999/xlink">
    <!-- Generator: Sketch 60.1 (88133) - https://sketch.com -->
    <title>  alert </title>
    <desc>Created with Sketch.</desc>
    <g id="v1.1.0_20191216" stroke="none" stroke-width="1" fill-rule="evenodd">
        <g id="监控大屏" transform="translate(-1308.000000, -815.000000)" fill-rule="nonzero">
            <g id="编组-27" transform="translate(650.000000, 770.000000)">
                <g id="编组-16" transform="translate(0.000000, 40.000000)">
                    <g id="--alert-" transform="translate(658.500000, 5.956522)">
                        <path d="M16.392318,10.6173913 L16.392318,16.4526522 L4.723231,16.4526522 L4.723231,10.6173913 C4.7334739,7.39835839 7.34089131,4.79158193 10.5599267,4.78213043 C13.7776068,4.7931604 16.3828707,7.39970611 16.392318,10.6173913 L16.392318,10.6173913 Z M3.47925171,18.8917826 L3.47925171,17.6951739 L17.5401669,17.6951739 L17.5401669,18.8917826 C17.5441511,19.5440228 17.0215456,20.0775159 16.3693614,20.0869565 L4.65149187,20.0869565 C3.99874512,20.0782963 3.47527498,19.5445746 3.47925171,18.8917826 Z" id="alert_1"></path>
                        <path d="M20.1026658,8.34182609 L18.9447962,8.6703913 C18.6358405,8.77257408 18.2986884,8.6327048 18.1527962,8.34182609 C18.0308397,8.06778261 18.2130571,7.74208696 18.5186658,7.6316087 L19.6765353,7.30447826 C19.9851282,7.20207521 20.3221567,7.34128262 20.4685353,7.6316087 C20.5890571,7.96017391 20.4054049,8.28730435 20.1026658,8.34182609 L20.1026658,8.34182609 Z M2.40605709,7.44652174 C2.71310056,7.55843478 2.89388317,7.83391304 2.77192665,8.16821739 C2.64997013,8.3906087 2.34579622,8.55704348 1.97992665,8.50252174 L0.822057086,8.16821739 C0.516448391,8.05630435 0.335665782,7.78082609 0.456187521,7.44652174 C0.579578825,7.16673913 0.882317956,7.00173913 1.24818752,7.11221739 L2.40605709,7.44652174 Z M15.9862745,2.41043478 C16.1684919,2.18517391 16.5343614,2.12634783 16.8371006,2.29565217 C17.0795788,2.46782609 17.1384049,2.80643478 16.9590571,3.08908696 L16.227318,3.99443478 C16.0465353,4.22113043 15.6806658,4.27852174 15.3779267,4.10921739 C15.1340136,3.93847826 15.0751875,3.54247826 15.2559701,3.31721739 L15.9862745,2.41043478 L15.9862745,2.41043478 Z M4.89110056,3.80791304 L4.16079622,2.871 C3.97857883,2.65147826 4.03883969,2.32004348 4.28418752,2.10052174 C4.58836143,1.93552174 4.94992665,1.99004348 5.13214404,2.26552174 L5.86244839,3.14791304 C6.04466578,3.36886957 5.98440491,3.7533913 5.73905709,3.91982609 C5.43775274,4.08482609 5.07331796,4.03030435 4.89110056,3.80791304 L4.89110056,3.80791304 Z M9.88844839,1.79347826 L9.88844839,0.598304348 C9.88844839,0.239608696 10.1180136,0 10.4623614,0 C10.8067093,0 11.0362745,0.238173913 11.0362745,0.598304348 L11.0362745,1.79347826 C11.0362745,2.15217391 10.8067093,2.39178261 10.4623614,2.39178261 C10.1194484,2.39178261 9.88844839,2.15217391 9.88844839,1.79347826 Z" id="alert_2"></path>
                    </g>
                </g>
            </g>
        </g>
    </g>
</svg>