<?xml version="1.0" encoding="UTF-8"?>
<svg width="56px" height="56px" viewBox="0 0 56 56" version="1.1" xmlns="http://www.w3.org/2000/svg" xmlns:xlink="http://www.w3.org/1999/xlink">
    <!-- Generator: Sketch 56.3 (81716) - https://sketch.com -->
    <title>编组</title>
    <desc>Created with Sketch.</desc>
    <g id="v1.2.0_20191106" stroke="none" stroke-width="1" fill="none" fill-rule="evenodd">
        <g id="个人首页-待办理任务-修改" transform="translate(-1775.000000, -142.000000)" fill-rule="nonzero">
            <g id="编组" transform="translate(1775.000000, 142.000000)">
                <path d="M1.5625,54.4375 L1.5625,45.375 C1.5625,41.06875 5.06875,37.5625 9.375,37.5625 L46.625,37.5625 C50.93125,37.5625 54.4375,41.06875 54.4375,45.375 L54.4375,54.4375 L1.5625,54.4375 Z" id="路径" fill="#F7C1BF"></path>
                <path d="M46.625,39.125 C50.06875,39.125 52.875,41.93125 52.875,45.375 L52.875,52.875 L3.125,52.875 L3.125,45.375 C3.125,41.93125 5.93125,39.125 9.375,39.125 L46.625,39.125 L46.625,39.125 Z M46.625,36 L9.375,36 C4.2,36 0,40.2 0,45.375 L0,56 L56,56 L56,45.375 C56,40.2 51.8,36 46.625,36 Z" id="形状" fill="#3A3644"></path>
                <polygon id="路径" fill="#F3A9A7" points="3.09375 49.3625 52.84375 49.3625 52.84375 52.8625 3.09375 52.8625"></polygon>
                <path d="M14.66875,41.03125 C12.94375,41.03125 11.54375,42.43125 11.54375,44.15625 C11.54375,45.88125 12.94375,47.28125 14.66875,47.28125 C16.39375,47.28125 17.79375,45.88125 17.79375,44.15625 C17.79375,42.43125 16.39375,41.03125 14.66875,41.03125 Z M23.55625,41.03125 C21.83125,41.03125 20.43125,42.43125 20.43125,44.15625 C20.43125,45.88125 21.83125,47.28125 23.55625,47.28125 C25.28125,47.28125 26.68125,45.88125 26.68125,44.15625 C26.68125,42.43125 25.28125,41.03125 23.55625,41.03125 Z M32.44375,41.03125 C30.71875,41.03125 29.31875,42.43125 29.31875,44.15625 C29.31875,45.88125 30.71875,47.28125 32.44375,47.28125 C34.16875,47.28125 35.56875,45.88125 35.56875,44.15625 C35.56875,42.43125 34.16875,41.03125 32.44375,41.03125 Z M41.33125,41.03125 C39.60625,41.03125 38.20625,42.43125 38.20625,44.15625 C38.20625,45.88125 39.60625,47.28125 41.33125,47.28125 C43.05625,47.28125 44.45625,45.88125 44.45625,44.15625 C44.45625,42.43125 43.05625,41.03125 41.33125,41.03125 Z" id="形状" fill="#EB6877"></path>
                <path d="M10,37.5625 L10,31 C10,26.69375 13.50625,23.1875 17.8125,23.1875 L38.1875,23.1875 C42.49375,23.1875 46,26.69375 46,31 L46,37.5625 L10,37.5625 Z" id="路径" fill="#FFC06E"></path>
                <path d="M38.1875,24.75 C41.63125,24.75 44.4375,27.55625 44.4375,31 L44.4375,36 L11.5625,36 L11.5625,31 C11.5625,27.55625 14.36875,24.75 17.8125,24.75 L38.1875,24.75 L38.1875,24.75 Z M38.1875,21.625 L17.8125,21.625 C12.6375,21.625 8.4375,25.825 8.4375,31 L8.4375,39.125 L47.5625,39.125 L47.5625,31 C47.5625,25.825 43.3625,21.625 38.1875,21.625 Z" id="形状" fill="#3A3644"></path>
                <polygon id="路径" fill="#FFAD55" points="11.5625 32.58125 44.4375 32.58125 44.4375 36.08125 11.5625 36.08125"></polygon>
                <path d="M33.125,25 C33.125,24.9 33.13125,24.8 33.13125,24.70625 L38.16875,24.70625 C39.525,24.70625 40.775,25.18125 41.8,25.9125 C41.4375,28.20625 39.64375,29.90625 37.49375,29.90625 C35.08125,29.90625 33.125,27.7125 33.125,25 L33.125,25 Z M28.75,29.90625 C31.16875,29.90625 33.125,27.7125 33.125,25 C33.125,24.9 33.11875,24.8 33.11875,24.70625 L24.38125,24.70625 C24.375,24.80625 24.375,24.90625 24.375,25 C24.375,27.7125 26.33125,29.90625 28.75,29.90625 Z M15.625,25.1375 C15.6625,27.8125 17.60625,29.90625 20,29.90625 C22.41875,29.90625 24.375,27.7125 24.375,25 C24.375,24.9 24.36875,24.8 24.36875,24.70625 L17.75625,24.70625 C17.00625,24.70625 16.29375,24.9 15.625,25.1375 Z" id="形状" fill="#FFFFFF"></path>
                <polygon id="路径" fill="#3A3644" points="26.4375 11.625 29.5625 11.625 29.5625 21.625 26.4375 21.625"></polygon>
                <path d="M28,12.725 C26.575,12.725 25.3625,12.3125 24.4875,11.53125 C23.69375,10.81875 23.25,9.84375 23.25,8.7875 C23.25,7.18125 24.10625,5.23125 25.60625,3.4375 C26.8875,1.9 28.0875,1.14375 28.6375,0.975 C28.8375,3.56875 30.18125,5.175 31.2625,6.475 C31.9875,7.3375 32.60625,8.0875 32.69375,8.8875 C32.78125,9.725 32.5125,10.525 31.90625,11.2 C31.0375,12.16875 29.6125,12.725 28,12.725 Z" id="路径" fill="#F24A5D"></path>
                <path d="M27.925,2.46875 C28.4375,4.55625 29.625,5.98125 30.54375,7.075 C31.16875,7.825 31.70625,8.46875 31.7625,8.9875 C31.8375,9.70625 31.50625,10.24375 31.2125,10.56875 C30.51875,11.34375 29.35,11.7875 28.00625,11.7875 C25.7625,11.7875 24.19375,10.55625 24.19375,8.7875 C24.19375,7.475 24.90625,5.825 26.14375,4.26875 C26.68125,3.59375 27.29375,2.96875 27.88125,2.5125 C27.89375,2.49375 27.90625,2.48125 27.925,2.46875 L27.925,2.46875 Z M28.8375,0 C27,0 22.3125,4.63125 22.3125,8.7875 C22.3125,11.475 24.55,13.6625 28,13.6625 C31.45,13.6625 33.90625,11.41875 33.625,8.7875 C33.35625,6.26875 29.8125,4.93125 29.5625,0.7875 C29.53125,0.24375 29.25625,0 28.8375,0 Z" id="形状" fill="#3A3644"></path>
                <path d="M27.93125,2.475 C27.93125,2.475 26.86875,3.24375 25.84375,4.65625 C25.28125,5.425 24.9375,6.1 24.6875,6.64375 C23.575,9.10625 24.63125,10.2875 24.63125,10.2875 C24.63125,10.2875 25.25625,8.7375 26.05625,7.25625 C26.7125,6.0375 28.69375,4.4875 28.69375,4.4875 C28.69375,4.4875 28.48125,4.09375 28.2875,3.59375 C28.08125,3.075 27.93125,2.475 27.93125,2.475 L27.93125,2.475 Z" id="路径" fill="#F8B052"></path>
            </g>
        </g>
    </g>
</svg>