<?xml version="1.0" encoding="UTF-8"?>
<svg width="239px" height="40px" viewBox="0 0 239 40" version="1.1" xmlns="http://www.w3.org/2000/svg" xmlns:xlink="http://www.w3.org/1999/xlink">
    <!-- Generator: Sketch 60.1 (88133) - https://sketch.com -->
    <title>编组 14</title>
    <desc>Created with Sketch.</desc>
    <g id="页面-1" stroke="none" stroke-width="1" fill="none" fill-rule="evenodd">
        <g id="画板" transform="translate(-471.000000, -99.000000)">
            <g id="编组-14" transform="translate(110.000000, 99.000000)">
                <path d="M20.2071068,0.5 L0.5,20.2071068 L0.5,129.5 L599.5,129.5 L599.5,40.2071068 L579.792893,20.5 L383.812228,20.5 L360.939624,0.5 L20.2071068,0.5 Z" id="矩形" stroke-opacity="0.295427229" stroke="#2CE5F6"></path>
                <path d="M586.5,20.5 L586.5,32.7928932 L598.792893,20.5 L586.5,20.5 Z" id="矩形" stroke-opacity="0.802174388" stroke="#2CE5F6" transform="translate(593.000000, 27.000000) scale(-1, 1) translate(-593.000000, -27.000000) "></path>
                <g id="编组-17" transform="translate(384.000000, 3.000000)" fill="#2CE5F6">
                    <polygon id="矩形" points="0 0 6 0 15 8 9 8"></polygon>
                    <polygon id="矩形备份-24" fill-opacity="0.8" points="15 0 21 0 30 8 24 8"></polygon>
                    <polygon id="矩形备份-26" fill-opacity="0.4" points="45 0 51 0 60 8 54 8"></polygon>
                    <polygon id="矩形备份-25" opacity="0.599999964" points="30 0 36 0 45 8 39 8"></polygon>
                    <polygon id="矩形备份-27" fill-opacity="0.2" points="60 0 66 0 75 8 69 8"></polygon>
                </g>
            </g>
        </g>
    </g>
</svg>