<?xml version="1.0" encoding="UTF-8"?>
<svg width="20px" height="20px" viewBox="0 0 20 20" version="1.1" xmlns="http://www.w3.org/2000/svg" xmlns:xlink="http://www.w3.org/1999/xlink">
    <title>0123_user_account</title>
    <g id="工程文档" stroke="none" stroke-width="1" fill="none" fill-rule="evenodd">
        <g id="新华CPAD系统-图适配1440x900" transform="translate(-1088.000000, -366.000000)" fill-rule="nonzero">
            <g id="编组-6" transform="translate(1072.000000, 291.000000)">
                <g id="编组-3" transform="translate(0.000000, 65.000000)">
                    <g id="0123_user_account" transform="translate(16.000000, 10.000000)">
                        <rect id="矩形" fill="#000000" opacity="0" x="0" y="0" width="20" height="20"></rect>
                        <path d="M10,4.16666666 C8.16666666,4.16666666 6.66666666,5.66666666 6.66666666,7.5 C6.66666666,9.33333334 8.16666666,10.8333333 10,10.8333333 C11.8333333,10.8333333 13.3333333,9.33333334 13.3333333,7.5 C13.3333333,5.66666666 11.8333333,4.16666666 10,4.16666666 Z M10,9.58333334 C8.83333334,9.58333334 7.91666666,8.66666668 7.91666666,7.5 C7.91666666,6.33333332 8.83333332,5.41666666 10,5.41666666 C11.1666667,5.41666666 12.0833333,6.33333332 12.0833333,7.5 C12.0833333,8.66666668 11.1666667,9.58333334 10,9.58333334 L10,9.58333334 Z M10,1.66666666 C5.41666666,1.66666666 1.66666666,5.41666666 1.66666666,10 C1.66666666,14.5833333 5.41666666,18.3333333 10,18.3333333 C14.5833333,18.3333333 18.3333333,14.5833333 18.3333333,10 C18.3333333,5.41666666 14.5833333,1.66666666 10,1.66666666 Z M6.25,16 L6.25,14.1666667 C6.25,13.4583333 6.79166666,12.9166667 7.5,12.9166667 L12.5,12.9166667 C13.2083333,12.9166667 13.75,13.4583333 13.75,14.1666667 L13.75,16 C12.6666667,16.6666667 11.375,17.0833333 10,17.0833333 C8.625,17.0833333 7.33333334,16.6666667 6.25,16 L6.25,16 Z M15,15 L15,14.1666667 C15,12.7916667 13.875,11.6666667 12.5,11.6666667 L7.5,11.6666667 C6.125,11.6666667 5,12.7916667 5,14.1666667 L5,15 C3.70833334,13.7083333 2.91666666,11.9583333 2.91666666,10 C2.91666666,6.08333334 6.08333332,2.91666666 10,2.91666666 C13.9166667,2.91666666 17.0833333,6.08333332 17.0833333,10 C17.0833333,11.9583333 16.2916667,13.7083333 15,15 Z" id="形状" fill="#646769"></path>
                    </g>
                </g>
            </g>
        </g>
    </g>
</svg>