<?xml version="1.0" encoding="UTF-8"?>
<svg width="16px" height="16px" viewBox="0 0 16 16" version="1.1" xmlns="http://www.w3.org/2000/svg" xmlns:xlink="http://www.w3.org/1999/xlink">
    <title>0125_visibility_on</title>
    <g id="工程文档" stroke="none" stroke-width="1" fill="none" fill-rule="evenodd">
        <g id="新华CPAD系统-表单交互示例" transform="translate(-1234.000000, -523.000000)" fill-rule="nonzero">
            <g id="编组-6备份" transform="translate(978.000000, 199.000000)">
                <g id="编组-4备份" transform="translate(0.000000, 312.000000)">
                    <g id="0125_visibility_on" transform="translate(256.000000, 12.000000)">
                        <rect id="矩形" fill="#000000" opacity="0" x="0" y="0" width="16" height="16"></rect>
                        <path d="M8,2.33333333 C2.66666667,2.33333333 1,8 1,8 C1,8 2.66666667,13.6666667 8,13.6666667 C13.3333333,13.6666667 15,8 15,8 C15,8 13.3333333,2.33333333 8,2.33333333 Z M8,12.6666667 C4.06666667,12.6666667 2.46666667,9.06666667 2.06666667,8 C2.46666667,6.96666667 4.1,3.33333333 8,3.33333333 C11.9333333,3.33333333 13.5333333,6.93333333 13.9333333,8 C13.5333333,9.03333333 11.9,12.6666667 8,12.6666667 L8,12.6666667 Z M8,4.66666667 C6.16666667,4.66666667 4.66666667,6.16666667 4.66666667,8 C4.66666667,9.83333333 6.16666667,11.3333333 8,11.3333333 C9.83333333,11.3333333 11.3333333,9.83333333 11.3333333,8 C11.3333333,6.16666667 9.83333333,4.66666667 8,4.66666667 Z M8,10.3333333 C6.7,10.3333333 5.66666667,9.3 5.66666667,8 C5.66666667,6.7 6.7,5.66666667 8,5.66666667 C9.3,5.66666667 10.3333333,6.7 10.3333333,8 C10.3333333,9.3 9.3,10.3333333 8,10.3333333 Z" id="形状" fill="#0C6BD8"></path>
                    </g>
                </g>
            </g>
        </g>
    </g>
</svg>