<?xml version="1.0" encoding="UTF-8"?>
<svg width="16px" height="16px" viewBox="0 0 16 16" version="1.1" xmlns="http://www.w3.org/2000/svg" xmlns:xlink="http://www.w3.org/1999/xlink">
    <title>0126_visibility_off</title>
    <g id="工程文档" stroke="none" stroke-width="1" fill="none" fill-rule="evenodd">
        <g id="新华CPAD系统-图适配1440x900" transform="translate(-1328.000000, -432.000000)" fill-rule="nonzero">
            <g id="编组-6" transform="translate(1072.000000, 291.000000)">
                <g id="编组-4" transform="translate(0.000000, 129.000000)">
                    <g id="0126_visibility_off" transform="translate(256.000000, 12.000000)">
                        <rect id="矩形" fill="#000000" opacity="0" x="0" y="0" width="16" height="16"></rect>
                        <path d="M1.98966667,2.69666667 L2.69633333,1.99 L14.0336667,13.3266667 L13.327,14.034 L1.98966667,2.69666667 Z M8,3.33333333 C11.9333333,3.33333333 13.5333333,6.93333333 13.9333333,8 C13.7333333,8.5 13.2333333,9.66666667 12.3333333,10.6666667 L13.0333333,11.3666667 C14.4666667,9.8 15,8 15,8 C15,8 13.3333333,2.33333333 8,2.33333333 C6.73333333,2.33333333 5.66666667,2.66666666 4.8,3.13333333 L5.53333333,3.86666667 C6.23333333,3.53333334 7.06666666,3.33333333 8,3.33333333 Z M8,12.6666667 C4.06666667,12.6666667 2.46666667,9.06666667 2.06666667,8 C2.26666667,7.5 2.76666667,6.33333333 3.66666667,5.33333333 L2.96666667,4.63333333 C1.53333333,6.2 1,8 1,8 C1,8 2.66666667,13.6666667 8,13.6666667 C9.26666667,13.6666667 10.3333333,13.3333333 11.2,12.8666667 L10.4666667,12.1333333 C9.76666667,12.4666667 8.93333334,12.6666667 8,12.6666667 Z M11.0333333,9.36666667 C11.2333333,8.93333334 11.3333333,8.46666667 11.3333333,8 C11.3333333,6.16666667 9.83333333,4.66666667 8,4.66666667 C7.5,4.66666667 7.03333333,4.76666667 6.63333333,4.96666667 L7.4,5.73333333 C7.6,5.66666667 7.8,5.66666667 8,5.66666667 C9.3,5.66666667 10.3333333,6.7 10.3333333,8 C10.3333333,8.2 10.3,8.4 10.2666667,8.6 L11.0333333,9.36666667 Z M4.96666667,6.63333333 C4.76666667,7.03333333 4.66666667,7.5 4.66666667,8 C4.66666667,9.83333333 6.16666667,11.3333333 8,11.3333333 C8.5,11.3333333 8.96666667,11.2333333 9.36666667,11.0333333 L8.6,10.2666667 C8.4,10.3 8.2,10.3333333 8,10.3333333 C6.7,10.3333333 5.66666667,9.3 5.66666667,8 C5.66666667,7.8 5.7,7.6 5.73333333,7.4 L4.96666667,6.63333333 Z" id="形状" fill="#96999B"></path>
                    </g>
                </g>
            </g>
        </g>
    </g>
</svg>